<svg width="32" height="32" viewBox="0 0 32 32" fill="none" xmlns="http://www.w3.org/2000/svg">
<path d="M8.66667 14.667L16 2.66699L23.3333 14.667H8.66667ZM23.3333 29.3337C21.6667 29.3337 20.2502 28.7505 19.084 27.5843C17.9178 26.4181 17.3342 25.0012 17.3333 23.3337C17.3324 21.6661 17.916 20.2497 19.084 19.0843C20.252 17.919 21.6684 17.3354 23.3333 17.3337C24.9982 17.3319 26.4151 17.9154 27.584 19.0843C28.7529 20.2532 29.336 21.6697 29.3333 23.3337C29.3307 24.9977 28.7476 26.4145 27.584 27.5843C26.4204 28.7541 25.0036 29.3372 23.3333 29.3337ZM4 28.667V18.0003H14.6667V28.667H4ZM23.3333 26.667C24.2667 26.667 25.0556 26.3448 25.7 25.7003C26.3444 25.0559 26.6667 24.267 26.6667 23.3337C26.6667 22.4003 26.3444 21.6114 25.7 20.967C25.0556 20.3225 24.2667 20.0003 23.3333 20.0003C22.4 20.0003 21.6111 20.3225 20.9667 20.967C20.3222 21.6114 20 22.4003 20 23.3337C20 24.267 20.3222 25.0559 20.9667 25.7003C21.6111 26.3448 22.4 26.667 23.3333 26.667ZM6.66667 26.0003H12V20.667H6.66667V26.0003ZM13.4 12.0003H18.6L16 7.80032L13.4 12.0003Z" fill="#FFA329"/>
</svg>
